<svg xmlns="http://www.w3.org/2000/svg" width="968" height="204" viewBox="0 0 968 204">
<defs>
<linearGradient id="gR" x1="0" y1="0" x2="0.35" y2="1">
<stop offset="0" stop-color="#4092FD"/><stop offset="0.55" stop-color="#5A66F7"/><stop offset="1" stop-color="#6F4EF6"/></linearGradient>
<linearGradient id="gN" x1="0" y1="0" x2="0" y2="1">
<stop offset="0" stop-color="#5066A0"/><stop offset="1" stop-color="#82A0E0"/></linearGradient>
</defs>
<g transform="translate(-186.43,-100.58) scale(0.56115)"><g transform="translate(0.000000,1024.000000) scale(0.100000,-0.100000)"><path d="M6000 7866 c0 -3 9 -10 20 -16 11 -6 20 -8 20 -6 0 3 -9 10 -20 16
-11 6 -20 8 -20 6z M6250 7620 c6 -11 13 -20 16 -20 2 0 0 9 -6 20 -6 11 -13
20 -16 20 -2 0 0 -9 6 -20z M4556 7287 c-22 -55 -28 -86 -6 -39 29 64 32 50 3
-20 -23 -59 -45 -98 -29 -53 15 41 -11 -1 -33 -53 -12 -30 -20 -60 -17 -68 3
-8 2 -13 -3 -10 -11 7 -45 -80 -37 -93 6 -10 -62 -191 -71 -191 -3 0 -2 7 1
16 3 8 2 13 -3 10 -12 -8 -54 -127 -47 -133 3 -4 6 1 6 10 0 10 5 17 11 17 5
0 8 -4 5 -9 -6 -9 81 -24 95 -15 5 3 9 11 9 17 0 7 -4 6 -10 -3 -16 -25 -10 2
10 45 17 36 19 37 14 10 -3 -16 19 29 49 100 30 73 49 133 44 136 -6 4 -5 14
3 25 11 18 11 18 6 -1 -6 -20 -6 -20 9 -1 11 14 12 22 4 27 -8 5 -8 12 1 25
11 18 11 18 5 -1 -10 -33 12 -4 30 38 9 22 11 36 6 32 -6 -3 -11 -12 -11 -20
0 -8 -4 -16 -9 -20 -6 -3 -3 15 5 40 9 25 18 45 21 45 3 0 2 -8 -1 -17 -5 -15
-3 -14 9 2 9 11 11 21 6 23 -5 2 -1 12 10 23 10 10 19 25 19 32 -1 6 -7 1 -15
-13 -17 -30 -20 -21 -4 14 7 14 15 23 19 21 5 -3 11 2 14 11 3 8 2 12 -4 9
-17 -10 -11 7 8 22 9 8 12 12 5 9 -6 -4 -14 -2 -18 4 -3 6 4 11 17 11 19 1 18
3 -7 9 -16 4 -47 8 -67 9 -34 1 -39 -3 -52 -32z m88 15 c6 -9 -61 -8 -71 1 -3
4 10 7 30 7 20 0 38 -4 41 -8z m-140 -201 c-9 -23 -18 -40 -20 -38 -2 2 4 22
13 45 9 23 18 40 20 38 2 -2 -4 -22 -13 -45z m-48 -118 c-8 -15 -15 -25 -16
-21 0 12 23 58 27 54 3 -2 -2 -17 -11 -33z m75 -60 c-12 -20 -14 -14 -5 12 4
9 9 14 11 11 3 -2 0 -13 -6 -23z m-30 -74 c-11 -24 -20 -41 -20 -37 -1 12 31
89 35 85 3 -2 -4 -24 -15 -48z m-30 -76 c-12 -20 -14 -14 -5 12 4 9 9 14 11
11 3 -2 0 -13 -6 -23z m-120 -50 c-12 -20 -14 -14 -5 12 4 9 9 14 11 11 3 -2
0 -13 -6 -23z M4083 7214 c-13 -13 -17 -24 -10 -24 14 0 -53 -55 -68 -55 -15
0 -96 -67 -89 -74 3 -3 9 1 14 9 6 8 10 10 10 4 0 -16 -27 -37 -38 -30 -6 3
-16 -2 -23 -12 -13 -16 -13 -16 6 -2 19 14 19 14 6 -2 -7 -10 -17 -16 -21 -13
-9 5 -58 -31 -50 -37 3 -2 37 -32 76 -66 40 -34 76 -62 80 -62 5 0 0 7 -10 15
-11 8 -15 15 -10 15 6 0 23 -13 39 -30 16 -16 25 -30 21 -30 -5 0 -3 -7 4 -15
18 -21 35 -19 19 3 -7 9 -1 6 14 -7 30 -27 36 -40 10 -21 -10 7 -3 -2 15 -19
31 -29 61 -35 46 -8 -4 7 -3 9 1 4 10 -9 65 41 65 60 0 14 -16 18 -23 6 -2 -5
-2 -3 -1 4 4 17 -54 63 -71 56 -11 -3 -13 -1 -9 10 3 10 -3 20 -18 28 -13 7
-24 10 -25 8 -1 -2 -5 0 -10 5 -5 6 -2 6 7 1 8 -4 2 6 -15 24 l-29 31 22 16
c12 8 19 20 16 26 -4 6 -2 8 3 5 6 -4 28 10 50 31 22 20 30 30 19 22 -21 -15
-21 -15 -3 7 11 12 24 19 31 17 7 -3 19 3 27 12 12 16 12 17 -1 9 -9 -5 -8 0
4 13 21 25 36 31 16 7 -8 -9 -9 -15 -2 -15 30 0 21 26 -19 61 -24 21 -46 38
-49 38 -3 -1 -15 -12 -27 -25z m45 4 c8 -10 5 -13 -13 -13 -18 0 -21 3 -13 13
6 6 12 12 13 12 1 0 7 -6 13 -12z m-218 -295 c0 -8 -38 17 -51 33 -9 11 -2 9
19 -6 17 -13 32 -25 32 -27z M4895 7231 c6 -11 4 -13 -9 -8 -13 5 -17 3 -13
-7 4 -11 1 -13 -10 -9 -13 5 -15 2 -10 -11 4 -9 3 -15 -2 -12 -5 3 -14 -1 -21
-9 -11 -13 -9 -20 10 -40 25 -26 46 -34 34 -12 -4 6 2 4 14 -7 12 -10 19 -22
17 -27 -3 -4 19 -27 49 -51 49 -38 70 -67 49 -68 -5 0 -28 -19 -53 -41 -32
-29 -35 -34 -11 -17 89 62 92 60 7 -8 -28 -21 -46 -33 -42 -26 14 24 -10 11
-56 -31 l-48 -42 46 -39 c43 -37 46 -38 62 -21 16 16 16 17 -4 7 -18 -10 -25
-6 -50 21 l-29 32 31 -28 31 -28 30 25 c17 14 33 23 36 20 3 -3 11 -3 17 1 9
5 9 10 1 14 -6 4 -2 12 10 20 15 8 19 9 14 1 -10 -17 22 3 60 36 22 19 25 24
10 20 -13 -5 -7 4 15 23 39 34 65 43 29 10 -16 -14 -12 -13 11 4 19 13 35 29
35 35 0 6 4 14 9 19 5 5 6 2 1 -6 -5 -9 -3 -12 5 -9 8 2 16 10 18 18 3 7 0 10
-5 7 -12 -8 -53 20 -53 35 0 6 10 3 22 -8 12 -10 18 -14 14 -7 -3 7 -21 22
-39 35 -28 19 -30 20 -17 3 14 -20 14 -20 -7 -1 -13 10 -20 22 -18 27 6 9 -46
47 -60 43 -5 -2 -35 20 -65 49 -31 29 -48 46 -38 38 10 -8 20 -12 22 -10 2 2
-10 15 -27 29 -17 14 -27 19 -22 11z m100 -201 c10 -11 16 -20 13 -20 -3 0
-13 9 -23 20 -10 11 -16 20 -13 20 3 0 13 -9 23 -20z m40 -170 c-3 -5 -11 -10
-16 -10 -6 0 -7 5 -4 10 3 6 11 10 16 10 6 0 7 -4 4 -10z m-160 -10 c-3 -5
-20 -19 -38 -30 l-32 -22 35 31 c35 32 46 38 35 21z M4992 7144 c10 -10 20
-15 24 -12 3 4 -5 12 -18 18 -22 12 -22 12 -6 -6z M6432 7090 c0 -14 2 -19 5
-12 2 6 2 18 0 25 -3 6 -5 1 -5 -13z M6433 7005 c0 -22 2 -30 4 -17 2 12 2 30
0 40 -3 9 -5 -1 -4 -23z M4416 6931 c-13 -20 -25 -62 -17 -57 5 3 14 19 19 36
10 29 9 40 -2 21z M4380 6839 c-6 -11 -10 -25 -8 -30 2 -5 8 4 15 21 13 34 9
40 -7 9z M3986 6835 c4 -8 11 -15 16 -15 6 0 5 6 -2 15 -7 8 -14 15 -16 15 -2
0 -1 -7 2 -15z M4850 6481 c0 -5 8 -15 18 -22 15 -13 16 -12 4 3 -13 16 -5 18
120 21 l133 3 -137 2 c-76 1 -138 -2 -138 -7z M5238 6483 c23 -2 61 -2 85 0
23 2 4 4 -43 4 -47 0 -66 -2 -42 -4z M6184 6418 l-19 -23 23 19 c21 18 27 26
19 26 -2 0 -12 -10 -23 -22z M3770 6260 l0 -160 185 0 186 0 -2 160 c-1 157
-1 160 -22 159 -12 0 -16 -3 -9 -6 35 -14 -3 -18 -153 -15 l-164 3 -4 -133 -3
-133 -2 137 -2 137 153 4 152 3 -157 2 -158 2 0 -160z m295 -143 c22 -2 -33
-4 -122 -5 -90 -1 -163 1 -163 6 0 6 190 6 285 -1z m65 3 c0 -5 -4 -10 -10
-10 -5 0 -10 5 -10 10 0 6 5 10 10 10 6 0 10 -4 10 -10z M4935 6370 c10 -11
20 -20 23 -20 3 0 -3 9 -13 20 -10 11 -20 20 -23 20 -3 0 3 -9 13 -20z M5015
6280 c10 -11 20 -20 23 -20 3 0 -3 9 -13 20 -10 11 -20 20 -23 20 -3 0 3 -9
13 -20z M5630 6164 c0 -6 19 -28 43 -49 l42 -40 -40 45 c-22 25 -41 47 -42 49
-2 2 -3 0 -3 -5z M4141 5908 l-1 -178 23 1 c16 1 18 2 5 6 -16 4 -18 19 -16
161 l2 157 3 -152 4 -153 159 0 159 0 4 128 3 127 0 -138 c-1 -75 2 -137 7
-137 4 0 7 68 7 151 0 97 -4 148 -10 144 -5 -3 -10 3 -10 14 0 20 -6 21 -122
23 l-123 2 120 3 c104 3 121 1 132 -14 11 -15 13 -15 13 -1 0 9 -7 19 -16 22
-27 11 -331 7 -314 -4 13 -8 13 -10 -2 -10 -9 0 -19 6 -21 13 -3 6 -6 -68 -6
-165z M5247 6005 c10 -13 22 -25 27 -25 5 0 -1 11 -14 25 -30 32 -36 32 -13 0z
M5775 6000 c10 -11 20 -20 22 -20 2 0 -2 9 -9 20 -7 11 -17 20 -22 20 -5 0 -1
-9 9 -20z M5315 5930 c10 -11 20 -20 23 -20 3 0 -3 9 -13 20 -10 11 -20 20
-23 20 -3 0 3 -9 13 -20z M5855 5910 c10 -11 20 -20 23 -20 3 0 -3 9 -13 20
-10 11 -20 20 -23 20 -3 0 3 -9 13 -20z M5365 5870 c10 -11 20 -20 22 -20 2 0
-2 9 -9 20 -7 11 -17 20 -22 20 -5 0 -1 -9 9 -20z M5945 5810 c10 -11 20 -20
23 -20 3 0 -3 9 -13 20 -10 11 -20 20 -23 20 -3 0 3 -9 13 -20z M5432 5790 c7
-11 17 -20 22 -20 5 0 1 9 -9 20 -10 11 -20 20 -22 20 -2 0 2 -9 9 -20z M6020
5725 c13 -14 26 -25 28 -25 3 0 -5 11 -18 25 -13 14 -26 25 -28 25 -3 0 5 -11
18 -25z M4243 5733 c9 -2 23 -2 30 0 6 3 -1 5 -18 5 -16 0 -22 -2 -12 -5z
M5500 5715 c13 -14 26 -25 28 -25 3 0 -5 11 -18 25 -13 14 -26 25 -28 25 -3 0
5 -11 18 -25z M4494 5610 c0 -52 1 -74 3 -47 2 26 2 68 0 95 -2 26 -3 4 -3
-48z M5565 5640 c10 -11 20 -20 23 -20 3 0 -3 9 -13 20 -10 11 -20 20 -23 20
-3 0 3 -9 13 -20z M3850 5475 l0 -165 155 0 155 0 -1 28 c-2 23 -2 24 -6 5 -4
-23 -6 -23 -151 -21 l-147 2 143 3 142 4 0 144 0 144 -122 4 -123 3 132 0 c72
-1 129 2 126 7 -2 4 -71 7 -154 7 l-149 0 0 -165z m22 58 c-5 -181 -8 -199
-10 -50 -1 81 1 147 6 147 4 0 6 -44 4 -97z M6126 5608 c15 -20 30 -35 33 -32
3 2 -10 19 -28 37 l-34 32 29 -37z M5615 5580 c10 -11 20 -20 23 -20 3 0 -3 9
-13 20 -10 11 -20 20 -23 20 -3 0 3 -9 13 -20z M6180 5547 c0 -2 15 -16 33
-33 l32 -29 -29 33 c-28 30 -36 37 -36 29z M6280 5435 c14 -16 26 -32 28 -34
1 -2 4 -2 7 1 3 2 -10 18 -28 34 l-32 29 25 -30z M6350 5355 c19 -19 36 -35
38 -35 8 0 -53 69 -62 69 -6 1 5 -15 24 -34z M5810 5355 c13 -14 26 -25 28
-25 3 0 -5 11 -18 25 -13 14 -26 25 -28 25 -3 0 5 -11 18 -25z M6420 5275 c13
-14 25 -25 27 -25 9 0 -33 49 -41 50 -5 0 1 -11 14 -25z M5890 5265 c13 -14
26 -25 28 -25 3 0 -5 11 -18 25 -13 14 -26 25 -28 25 -3 0 5 -11 18 -25z" fill="url(#gN)"/></g></g>
<g transform="translate(-186.43,-100.58) scale(0.56115)"><g transform="translate(0.000000,1024.000000) scale(0.100000,-0.100000)"><path d="M3750 8013 c1 -4 74 -93 163 -198 l163 -190 749 -5 c582 -4 759 -9
790 -19 151 -49 297 -172 358 -301 46 -97 61 -177 54 -293 -6 -108 -24 -167
-79 -254 -74 -117 -205 -211 -347 -248 -61 -16 -210 -21 -614 -24 l-128 -1 23
-34 c13 -18 51 -64 84 -102 34 -38 74 -85 90 -104 16 -19 90 -105 164 -190 74
-85 141 -163 150 -174 33 -40 273 -318 405 -470 l140 -161 269 -3 268 -2 -32
37 c-18 21 -54 61 -79 89 -25 28 -71 80 -101 114 -30 35 -66 76 -80 90 -14 15
-38 42 -55 61 -67 76 -180 204 -185 209 -3 3 -55 61 -117 130 -61 69 -125 138
-142 154 -17 17 -31 33 -31 37 0 4 26 10 58 14 316 35 602 270 700 575 72 223
53 508 -47 714 -137 280 -330 442 -626 527 l-80 23 -942 4 c-519 1 -943 -1
-943 -5z M4328 5733 c28 -2 76 -2 105 0 28 2 5 3 -53 3 -58 0 -81 -1 -52 -3z
M4500 5490 l0 -210 200 0 200 0 0 210 0 210 -200 0 -200 0 0 -210z M4154 5490
c0 -74 1 -105 3 -67 2 37 2 97 0 135 -2 37 -3 6 -3 -68z" fill="url(#gR)"/></g></g>
<g transform="translate(62.95,-528.00) scale(1.00000)"><g transform="translate(0.000000,1024.000000) scale(0.100000,-0.100000)"><path d="M6415 4576 c-70 -17 -149 -62 -193 -110 -20 -23 -40 -40 -45 -38 -5
1 -6 -2 -3 -6 3 -5 -3 -27 -13 -48 -54 -111 -45 -264 20 -355 11 -16 25 -28
32 -26 7 1 11 -5 9 -15 -1 -9 11 -26 27 -37 33 -24 46 -27 35 -8 -4 7 -3 9 2
4 5 -5 9 -14 9 -20 0 -7 8 -11 18 -11 9 1 15 -2 12 -6 -7 -12 29 -22 51 -14
14 4 15 3 6 -4 -10 -7 -1 -12 32 -21 75 -18 246 -10 214 11 -8 5 -4 7 12 3 30
-7 84 11 75 24 -3 5 0 13 6 17 8 4 9 3 5 -4 -11 -19 20 -14 35 5 12 15 12 16
-1 8 -8 -4 -4 4 9 18 14 15 27 27 29 27 3 0 -3 -9 -13 -20 -31 -34 -1 -22 33
13 32 33 43 55 20 41 -7 -4 -8 -3 -4 5 4 6 11 9 16 6 26 -16 70 119 70 211 0
85 -31 165 -88 226 -24 26 -48 46 -52 43 -4 -2 -16 2 -26 11 -18 14 -18 14 5
4 17 -9 21 -9 16 -1 -11 19 -97 58 -153 70 -66 14 -142 13 -207 -3z m158 -3
c-7 -2 -21 -2 -30 0 -10 3 -4 5 12 5 17 0 24 -2 18 -5z m-120 -10 c-7 -2 -21
-2 -30 0 -10 3 -4 5 12 5 17 0 24 -2 18 -5z m180 0 c-7 -2 -19 -2 -25 0 -7 3
-2 5 12 5 14 0 19 -2 13 -5z m-318 -45 c-11 -6 -27 -16 -35 -22 -9 -6 -5 -1 8
12 13 12 28 22 35 22 7 0 3 -6 -8 -12z m258 -55 c-7 -2 -19 -2 -25 0 -7 3 -2
5 12 5 14 0 19 -2 13 -5z m252 -13 c10 -11 16 -20 13 -20 -3 0 -13 9 -23 20
-10 11 -16 20 -13 20 3 0 13 -9 23 -20z m-431 -15 c-25 -19 -12 -19 33 0 51
21 148 19 202 -5 23 -11 46 -18 50 -16 3 2 15 -2 26 -10 10 -8 14 -14 9 -14
-6 0 -17 6 -24 13 -8 6 -1 -4 17 -23 33 -38 63 -112 63 -160 0 -16 -7 -50 -15
-75 -9 -25 -13 -51 -9 -57 4 -6 3 -8 -3 -5 -10 6 -63 -42 -66 -59 -1 -5 -8 -7
-16 -6 -7 2 -10 -1 -6 -7 4 -7 0 -8 -11 -4 -13 5 -15 3 -9 -7 5 -8 4 -11 -2
-7 -6 4 -35 2 -64 -3 -52 -10 -111 -1 -173 25 -15 7 -17 5 -11 -6 5 -8 5 -11
-1 -6 -5 5 -9 14 -9 20 0 7 -8 12 -17 12 -21 0 -33 12 -33 33 0 9 -5 17 -12
17 -6 0 -15 4 -20 9 -5 5 -3 6 5 2 16 -9 15 -6 -4 40 -12 28 -14 54 -10 99 4
33 8 70 9 81 1 15 8 21 19 19 12 -3 15 1 11 12 -5 12 -3 14 7 8 8 -5 11 -4 6
3 -3 6 6 22 21 36 15 14 24 26 19 26 -5 0 -3 7 4 15 7 8 17 15 23 15 6 0 2 -7
-9 -15z m513 -247 c-2 -18 -4 -4 -4 32 0 36 2 50 4 33 2 -18 2 -48 0 -65z
m-640 -10 c-2 -13 -4 -3 -4 22 0 25 2 35 4 23 2 -13 2 -33 0 -45z m286 -315
c-18 -2 -48 -2 -65 0 -18 2 -4 4 32 4 36 0 50 -2 33 -4z M7190 4523 c0 -35 -1
-66 -2 -69 -2 -3 88 -5 198 -4 l202 1 -1 -28 c0 -15 -2 -22 -4 -15 -4 10 -9 9
-24 -4 -24 -22 -25 -41 -1 -23 15 13 16 12 3 -3 -7 -10 -17 -15 -22 -12 -12 7
-61 -47 -55 -62 5 -13 -17 -37 -26 -28 -9 8 -59 -57 -52 -68 4 -6 2 -8 -4 -4
-12 7 -55 -42 -47 -54 3 -4 -3 -14 -13 -21 -16 -13 -16 -12 -2 6 15 20 14 20
-8 1 -23 -20 -30 -42 -9 -30 9 5 9 3 -1 -7 -7 -8 -17 -14 -22 -14 -5 0 -34
-27 -65 -60 -51 -55 -55 -64 -55 -107 l0 -48 318 0 317 0 -2 47 c0 27 -2 56
-2 66 -1 16 -18 17 -208 17 -113 0 -203 3 -199 8 4 4 13 7 19 7 7 0 12 5 12
12 0 7 8 22 18 33 10 12 16 27 15 33 -2 7 7 25 20 41 12 16 22 24 22 19 0 -5
-9 -18 -20 -28 -11 -10 -18 -20 -16 -22 5 -6 75 69 76 80 0 5 -5 5 -12 1 -6
-4 -3 4 8 18 21 29 34 29 14 1 -7 -10 4 -1 24 20 20 21 34 43 30 49 -4 6 -3 8
3 5 13 -8 57 38 49 51 -3 5 1 18 10 28 14 18 14 17 3 -6 l-12 -25 27 24 c27
25 36 48 14 35 -7 -4 -5 2 6 14 10 12 22 19 27 17 4 -3 21 11 37 31 22 27 31
49 34 85 l3 48 -313 3 -312 3 0 -62z m318 40 c-16 -2 -40 -2 -55 0 -16 2 -3 4
27 4 30 0 43 -2 28 -4z m225 0 c-29 -2 -77 -2 -105 0 -29 2 -6 3 52 3 58 0 81
-1 53 -3z m55 -87 c-7 -6 -10 -7 -5 -2 4 6 8 21 8 36 2 25 2 25 6 1 3 -13 -1
-29 -9 -35z m-348 -409 c0 -2 -15 -16 -32 -33 l-33 -29 29 33 c28 30 36 37 36
29z m258 -84 c-53 -2 -143 -2 -200 0 -57 1 -13 3 97 3 110 0 156 -2 103 -3z
m-60 -100 c-82 -2 -214 -2 -295 0 -82 1 -15 3 147 3 162 0 229 -2 148 -3z
M8413 4583 c-44 -2 -73 -8 -73 -15 0 -6 -30 -77 -66 -159 -38 -84 -63 -153
-58 -160 4 -7 3 -10 -3 -6 -14 9 -24 -17 -17 -40 4 -13 3 -14 -3 -5 -7 8 -23
-18 -54 -85 -24 -54 -43 -104 -43 -110 1 -7 -3 -10 -9 -6 -6 4 -8 -2 -5 -15 4
-12 3 -20 -1 -18 -7 5 -55 -83 -49 -89 2 -2 36 -5 76 -6 l73 -2 25 53 c14 30
22 60 19 67 -2 8 -1 11 4 8 5 -3 12 -1 16 5 4 6 71 10 175 10 104 0 171 -4
175 -10 4 -6 11 -8 16 -5 5 3 6 -2 2 -11 -5 -13 -3 -15 7 -9 9 5 11 4 6 -4 -9
-15 3 -53 15 -46 5 3 6 0 4 -7 -12 -31 18 -46 98 -50 42 -3 77 -1 77 3 0 21
-45 97 -53 92 -6 -3 -7 -1 -3 5 4 6 -16 61 -44 122 -28 60 -48 115 -44 121 4
7 3 9 -3 6 -6 -4 -25 26 -43 66 -18 40 -46 100 -62 135 -16 35 -33 60 -38 57
-5 -3 -7 0 -5 8 5 11 -32 111 -38 105 -1 -1 -35 -4 -74 -5z m75 -25 c7 -7 12
-16 12 -22 0 -5 -6 -2 -12 7 -7 9 -31 18 -53 20 l-40 4 41 1 c22 1 45 -3 52
-10z m-198 -158 c-6 -11 -13 -20 -16 -20 -2 0 0 9 6 20 6 11 13 20 16 20 2 0
0 -9 -6 -20z m145 -31 c6 -17 9 -19 17 -8 7 10 8 8 3 -7 -3 -14 9 -51 34 -104
27 -57 40 -77 44 -64 2 11 4 2 3 -18 l-1 -38 -111 0 c-103 0 -112 2 -117 20
-3 11 -2 18 3 15 11 -7 33 52 24 66 -4 7 -3 10 3 6 13 -8 47 68 38 84 -5 7 -4
10 3 5 6 -3 15 8 22 29 13 40 26 45 35 14z m190 -100 c9 -17 15 -33 13 -35 -3
-2 -12 12 -21 31 -21 43 -13 47 8 4z m-106 -39 c11 -24 11 -24 -3 -6 -9 11
-16 24 -16 30 0 12 5 7 19 -24z m141 -40 c6 -11 8 -20 6 -20 -3 0 -10 9 -16
20 -6 11 -8 20 -6 20 3 0 10 -9 16 -20z m-182 -77 c-16 -2 -40 -2 -55 0 -16 2
-3 4 27 4 30 0 43 -2 28 -4z m-335 -230 c-13 -2 -35 -2 -50 0 -16 2 -5 4 22 4
28 0 40 -2 28 -4z M1580 4575 c0 -16 53 -74 63 -68 6 4 7 1 3 -6 -5 -7 0 -21
9 -31 10 -11 14 -24 10 -32 -6 -10 -5 -11 6 0 21 20 260 16 307 -5 20 -9 39
-16 42 -15 9 1 15 -83 9 -108 -2 -8 2 -14 9 -12 8 1 11 -2 7 -8 -3 -6 -11 -7
-17 -4 -7 5 -9 1 -5 -9 3 -9 3 -16 -1 -15 -4 1 -18 -4 -32 -12 -15 -9 -63 -17
-119 -20 l-95 -5 33 -37 c18 -21 37 -36 41 -33 5 3 12 0 16 -6 4 -8 3 -9 -4
-5 -21 13 -13 -10 10 -30 22 -19 23 -19 8 1 -14 18 -14 19 2 7 9 -8 14 -20 12
-27 -3 -8 6 -27 20 -42 14 -15 26 -32 26 -36 0 -5 6 -7 14 -4 8 3 22 -4 33
-15 10 -12 12 -18 4 -13 -11 6 -13 4 -8 -9 4 -10 7 -20 7 -22 0 -2 5 -4 11 -4
5 0 7 6 4 13 -4 6 11 -7 32 -30 21 -23 49 -43 63 -46 22 -4 22 -4 -5 -6 -24
-1 -34 5 -49 30 -10 17 -20 28 -23 25 -3 -3 0 -12 6 -20 7 -8 10 -20 6 -26 -4
-6 -3 -10 2 -9 4 1 15 -1 23 -4 20 -8 180 -14 180 -6 0 14 -42 58 -53 56 -7
-1 -11 5 -9 14 1 9 -8 24 -20 35 -13 12 -18 14 -13 4 5 -9 5 -12 -1 -7 -5 5
-9 12 -9 15 -1 19 -27 52 -37 46 -7 -4 -8 -3 -4 4 8 14 -43 74 -56 66 -6 -4
-5 3 1 15 7 11 15 21 20 21 17 0 92 73 87 86 -3 8 0 13 6 11 15 -3 36 66 37
118 1 49 -37 132 -59 127 -8 -2 -12 0 -8 4 11 10 -12 35 -25 27 -6 -3 -7 -1
-3 5 4 7 -13 20 -43 35 -47 22 -62 24 -260 26 -116 1 -211 0 -211 -4z m163
-12 c-13 -2 -33 -2 -45 0 -13 2 -3 4 22 4 25 0 35 -2 23 -4z m16 -99 c9 -8
-75 -3 -88 5 -8 5 5 7 35 4 27 -3 51 -7 53 -9z m89 -1 c-10 -2 -26 -2 -35 0
-10 3 -2 5 17 5 19 0 27 -2 18 -5z m75 0 c-7 -2 -21 -2 -30 0 -10 3 -4 5 12 5
17 0 24 -2 18 -5z m254 -130 c-3 -10 -5 -2 -5 17 0 19 2 27 5 18 2 -10 2 -26
0 -35z m-347 -127 c-7 -7 -13 -7 -20 0 -6 6 -3 10 10 10 13 0 16 -4 10 -10z
M2570 4575 c-3 -110 1 -705 5 -705 3 0 37 0 75 0 l70 0 0 355 0 355 -75 0
c-41 0 -75 -2 -75 -5z m137 -517 c-1 -90 -3 -17 -3 162 0 179 2 252 3 163 2
-90 2 -236 0 -325z m-120 0 c-1 -90 -3 -19 -3 157 0 176 2 249 3 163 2 -86 2
-230 0 -320z m86 -175 c-13 -2 -35 -2 -50 0 -16 2 -5 4 22 4 28 0 40 -2 28 -4z
M3332 4529 c-12 -29 -19 -56 -15 -62 3 -6 1 -7 -4 -4 -14 9 -37 -48 -27 -64 4
-7 3 -10 -3 -6 -13 8 -76 -121 -69 -140 3 -8 2 -12 -2 -9 -5 3 -28 -39 -52
-92 -24 -53 -63 -136 -87 -184 -24 -48 -43 -91 -43 -95 0 -5 37 -7 81 -6 85 2
103 11 95 46 -2 9 -1 15 3 13 4 -3 17 15 29 39 l22 45 171 0 170 0 26 -60 c18
-41 29 -56 35 -48 6 10 8 10 8 1 0 -8 15 -14 38 -15 l37 -1 -45 -7 c-41 -6
-39 -6 34 -11 43 -2 82 -2 86 1 5 3 -23 68 -60 145 -38 76 -67 142 -64 146 2
4 0 9 -4 11 -5 1 -23 36 -42 75 -18 41 -37 70 -43 66 -6 -3 -7 -1 -3 6 4 7 0
29 -9 49 -10 20 -32 69 -50 107 -18 39 -35 78 -38 88 -5 14 -19 17 -80 17
l-73 0 -22 -51z m9 -26 c-12 -20 -14 -14 -5 12 4 9 9 14 11 11 3 -2 0 -13 -6
-23z m199 -48 c0 -5 -5 -3 -10 5 -5 8 -10 20 -10 25 0 6 5 3 10 -5 5 -8 10
-19 10 -25z m-76 -137 c14 -32 22 -58 18 -58 -4 0 -2 -4 3 -8 6 -4 19 -26 29
-49 10 -23 22 -40 26 -38 5 3 6 -4 3 -15 -5 -19 -14 -20 -120 -20 -112 0 -114
0 -108 21 5 16 4 19 -5 14 -9 -5 -11 -4 -6 4 4 6 11 9 16 6 11 -7 33 51 24 66
-4 7 -3 10 4 5 6 -3 14 3 17 15 17 53 58 130 66 122 4 -4 19 -34 33 -65z m-93
-15 c-12 -20 -14 -14 -5 12 4 9 9 14 11 11 3 -2 0 -13 -6 -23z m158 -88 c0 -5
-6 1 -14 15 -8 14 -14 30 -14 35 0 6 6 -1 14 -15 8 -14 14 -29 14 -35z m151
-60 c0 -5 -5 -3 -10 5 -5 8 -10 20 -10 25 0 6 5 3 10 -5 5 -8 10 -19 10 -25z
m-197 -42 c-24 -2 -62 -2 -85 0 -24 2 -5 4 42 4 47 0 66 -2 43 -4z m256 -80
c12 -24 19 -43 16 -43 -5 0 -45 75 -45 86 0 11 6 2 29 -43z m-619 -13 c-11
-22 -23 -40 -25 -40 -3 0 4 18 15 40 11 22 23 40 25 40 3 0 -4 -18 -15 -40z
m519 -50 c11 -24 11 -24 -3 -6 -9 11 -16 24 -16 30 0 12 5 7 19 -24z m-574
-80 c3 -5 -1 -10 -10 -10 -9 0 -13 5 -10 10 3 6 8 10 10 10 2 0 7 -4 10 -10z
M4120 4225 l0 -355 75 0 75 0 1 238 c0 130 3 231 6 224 2 -6 10 -9 15 -6 7 4
8 2 4 -4 -9 -15 53 -84 68 -75 6 3 8 3 4 -2 -11 -12 24 -65 42 -62 9 1 14 -4
12 -14 -2 -15 22 -44 37 -44 3 0 5 -4 3 -9 -4 -12 68 -97 78 -91 5 3 12 0 16
-6 4 -8 3 -9 -4 -5 -7 4 -12 3 -12 -3 0 -10 19 -26 32 -26 3 0 10 -4 15 -9 5
-5 3 -6 -4 -2 -15 8 -17 -3 -4 -23 5 -7 13 -11 19 -8 5 4 18 -3 28 -16 16 -18
16 -19 2 -8 -26 20 -22 -2 5 -27 19 -18 35 -22 88 -22 l64 0 0 355 0 355 -77
0 -78 0 0 -226 c0 -188 -2 -225 -13 -215 -8 6 -18 7 -22 3 -5 -4 -5 -1 -1 6 9
15 -42 79 -58 74 -6 -2 -8 0 -4 3 9 9 -81 127 -91 120 -5 -2 -17 5 -27 18 -16
18 -16 19 -1 8 26 -21 20 2 -8 29 -13 12 -21 28 -18 34 4 6 0 5 -9 -2 -13 -10
-18 -9 -29 5 -13 16 -12 17 4 4 9 -7 17 -9 17 -3 0 12 -25 34 -32 27 -3 -3
-13 5 -24 17 l-19 23 23 -19 c12 -11 22 -15 22 -9 0 15 -56 64 -64 56 -4 -4
-4 1 0 11 10 27 -12 36 -88 36 l-68 0 0 -355z m548 338 c-16 -4 -18 -26 -21
-231 l-2 -227 -3 233 -2 232 23 -1 c16 -1 17 -3 5 -6z m-411 -545 c-2 -13 -4
-3 -4 22 0 25 2 35 4 23 2 -13 2 -33 0 -45z m-34 -135 c-13 -2 -33 -2 -45 0
-13 2 -3 4 22 4 25 0 35 -2 23 -4z m515 0 c-10 -2 -28 -2 -40 0 -13 2 -5 4 17
4 22 1 32 -1 23 -4z M5135 4226 l0 -356 206 0 c158 0 217 4 249 15 23 8 47 12
53 8 5 -3 7 -1 4 4 -4 6 0 14 9 17 8 3 12 11 8 17 -5 8 -3 9 5 4 8 -5 29 8 56
35 24 23 46 41 51 39 4 -2 9 5 10 16 1 11 12 45 23 75 20 55 26 131 15 189 -4
17 -10 28 -15 25 -5 -3 -6 2 -3 10 12 31 -67 153 -89 139 -6 -3 -8 -2 -4 3 10
17 -18 40 -88 75 l-70 34 -210 3 -210 4 0 -356z m138 337 c-13 -2 -35 -2 -50
0 -16 2 -5 4 22 4 28 0 40 -2 28 -4z m190 0 c-7 -2 -21 -2 -30 0 -10 3 -4 5
12 5 17 0 24 -2 18 -5z m84 -137 c37 -18 47 -20 38 -6 -12 20 2 9 36 -27 18
-20 26 -31 17 -24 -15 11 -17 10 -15 -7 1 -13 7 -19 18 -17 13 3 16 -1 12 -12
-4 -10 -2 -14 5 -9 6 3 14 1 18 -5 5 -8 3 -9 -6 -4 -10 6 -12 2 -7 -16 4 -13
7 -33 7 -44 0 -17 2 -18 11 -5 9 13 10 13 6 -2 -3 -9 -9 -34 -13 -55 -4 -21
-15 -55 -25 -75 -22 -44 -23 -52 -6 -42 6 4 4 -2 -7 -14 -10 -12 -22 -20 -26
-17 -3 2 -28 -7 -55 -20 -42 -22 -62 -25 -157 -25 l-108 0 0 226 0 227 113 -5
c76 -4 123 -10 144 -22z m208 -2 c9 -15 12 -23 6 -20 -11 7 -35 46 -28 46 3 0
12 -12 22 -26z m62 -226 c-3 -7 -5 -2 -5 12 0 14 2 19 5 13 2 -7 2 -19 0 -25z
m-399 -215 c-15 -2 -42 -2 -60 0 -18 2 -6 4 27 4 33 0 48 -2 33 -4z m65 0 c-7
-2 -19 -2 -25 0 -7 3 -2 5 12 5 14 0 19 -2 13 -5z m247 4 c0 -2 -10 -12 -22
-23 l-23 -19 19 23 c18 21 26 27 26 19z m-547 -104 c-7 -2 -19 -2 -25 0 -7 3
-2 5 12 5 14 0 19 -2 13 -5z m200 0 c-35 -2 -91 -2 -125 0 -35 2 -7 3 62 3 69
0 97 -1 63 -3z m130 0 c-7 -2 -19 -2 -25 0 -7 3 -2 5 12 5 14 0 19 -2 13 -5z
M1582 4059 l3 -192 60 1 60 0 1 133 1 133 -55 58 c-30 32 -59 58 -64 58 -5 0
-7 -86 -6 -191z" fill="#EEF2FC"/></g></g>
<g transform="translate(62.95,-528.00) scale(1.00000)"><g transform="translate(0.000000,1024.000000) scale(0.100000,-0.100000)"><path d="M4483 3515 c-59 -25 -88 -103 -63 -169 24 -64 143 -89 197 -41 24 21
26 26 13 35 -20 13 -40 13 -40 -1 0 -5 6 -7 13 -3 6 4 9 4 5 -1 -14 -15 -88
-15 -112 0 -12 8 -25 13 -27 11 -8 -8 -3 78 6 98 7 15 5 17 -6 11 -8 -5 -5 1
5 13 20 23 32 29 21 11 -5 -7 4 -8 27 -4 25 5 40 1 59 -13 21 -17 27 -18 43
-6 17 12 17 16 5 30 -16 20 -70 44 -96 44 -10 -1 -33 -7 -50 -15z M4812 3519
c-13 -5 -21 -13 -17 -19 4 -6 -1 -7 -11 -3 -14 5 -16 3 -11 -11 4 -9 3 -15 -2
-11 -5 3 -12 1 -16 -5 -4 -6 -10 -8 -14 -6 -3 3 -7 -26 -7 -64 -1 -38 2 -67 6
-65 5 3 10 -2 13 -10 11 -26 65 -46 120 -43 32 2 51 7 50 14 -1 7 5 11 15 10
23 -2 52 61 49 105 -4 46 -33 93 -53 85 -9 -3 -12 -1 -9 4 7 12 -36 30 -68 29
-12 0 -32 -4 -45 -10z m90 -53 c23 -10 36 -55 27 -90 -5 -16 -6 -32 -4 -36 3
-4 -5 -16 -18 -26 l-22 -19 20 24 20 24 -20 -8 c-19 -8 -50 -9 -93 -3 -10 1
-19 9 -20 18 -7 41 -8 109 -2 105 4 -2 16 2 26 10 19 15 54 15 86 1z M6417
3523 c-10 -3 -14 -9 -10 -16 4 -7 1 -7 -9 1 -14 11 -18 10 -27 -7 -14 -25 -14
-78 -1 -86 6 -4 8 -11 4 -16 -3 -5 -2 -8 3 -7 12 4 106 -23 118 -34 6 -5 3
-14 -8 -25 -16 -16 -29 -16 -117 8 -22 6 -18 -34 5 -48 24 -15 131 -17 140 -3
4 6 11 7 17 4 7 -4 8 -2 4 4 -4 7 -2 12 4 12 7 0 10 18 8 48 -2 27 -7 49 -13
49 -30 0 -46 4 -41 11 3 5 -7 7 -22 5 -33 -4 -67 20 -59 42 7 17 43 20 82 5
16 -6 24 -15 20 -22 -4 -7 1 -4 9 6 26 33 20 52 -23 64 -39 12 -53 13 -84 5z
M6718 3516 c-15 -8 -30 -11 -34 -8 -5 4 -2 -1 6 -11 11 -16 11 -18 -1 -15 -8
2 -13 -2 -12 -9 2 -7 -3 -10 -10 -7 -15 5 -19 -9 -19 -73 -1 -43 17 -78 33
-67 5 3 6 -3 2 -12 -5 -13 -3 -16 10 -11 10 4 16 2 14 -6 -1 -8 17 -13 54 -15
44 -2 65 2 90 17 19 12 30 21 26 21 -5 0 -1 10 7 22 9 12 16 40 16 61 0 90
-103 154 -182 113z m87 -46 c17 -6 24 -14 19 -22 -6 -10 -5 -10 7 -1 13 11 15
5 14 -39 -2 -75 -46 -106 -109 -77 -14 7 -23 16 -20 20 3 5 1 9 -4 9 -15 0
-21 39 -11 69 15 43 56 59 104 41z M2415 3405 c1 -72 -2 -112 -8 -108 -6 3 -7
1 -3 -5 8 -13 151 -17 181 -6 41 16 49 95 10 110 -13 5 -13 8 0 27 20 29 19
53 -5 77 -17 17 -33 20 -98 20 l-78 0 1 -115z m136 59 c11 -14 10 -18 -6 -30
-18 -14 -67 -19 -77 -9 -3 3 -3 16 -1 28 4 18 12 24 37 25 21 2 38 -4 47 -14z
m9 -100 c15 -15 -14 -44 -45 -44 -40 0 -52 9 -47 35 4 22 9 24 43 22 21 -1 44
-8 49 -13z M2729 3513 c0 -5 0 -44 1 -87 1 -79 13 -122 30 -111 5 3 7 -3 5
-13 -3 -15 5 -18 59 -20 47 -2 66 1 75 12 7 9 17 14 20 11 10 -6 12 6 18 118
l4 97 -28 0 -28 0 3 -82 c3 -93 -3 -109 -44 -114 -51 -5 -64 18 -64 113 0 82
0 83 -25 83 -14 0 -25 -3 -26 -7z M3050 3400 l0 -120 28 0 c26 0 28 3 26 38
-1 20 -2 74 -3 120 -1 81 -1 82 -26 82 l-25 0 0 -120z M3230 3400 l0 -120 91
0 c87 0 90 1 87 22 -3 19 -10 21 -63 22 -40 1 -60 5 -61 14 -1 6 -2 50 -3 97
-1 84 -1 85 -26 85 l-25 0 0 -120z M3500 3401 l0 -121 79 0 c46 0 83 5 86 11
4 6 13 8 21 5 8 -3 13 0 11 7 -1 7 3 11 9 10 6 -1 11 3 12 10 1 7 4 35 8 63 6
52 -8 100 -27 89 -5 -4 -8 -1 -7 7 2 7 -5 12 -15 12 -13 -2 -15 1 -7 11 8 10
-9 13 -80 14 l-90 2 0 -120z m155 54 c14 -13 25 -32 25 -43 0 -29 -24 -72 -37
-67 -7 2 -16 -3 -21 -11 -5 -10 -19 -14 -38 -11 -28 4 -29 5 -32 67 -2 34 -1
69 2 76 9 24 74 17 101 -11z M5098 3400 l-3 -120 70 0 c81 0 129 22 146 67 12
33 8 113 -6 129 -19 20 -55 35 -67 28 -7 -4 -8 -3 -4 4 5 9 -12 12 -63 12
l-70 0 -3 -120z m117 70 c5 -8 11 -7 21 1 9 7 14 8 13 3 -1 -5 3 -22 9 -37 16
-38 15 -47 -5 -70 -10 -11 -12 -17 -5 -13 6 4 12 5 12 2 0 -9 -63 -36 -85 -36
-13 0 -26 7 -29 16 -8 21 -8 129 1 137 10 11 61 8 68 -3z M5420 3400 l0 -120
95 0 c92 0 95 1 95 23 0 20 -4 22 -45 19 -68 -6 -97 4 -93 31 3 19 10 22 61
25 51 3 57 5 57 25 0 20 -5 22 -57 22 -55 0 -58 1 -58 25 0 24 3 25 63 28 54
3 62 6 62 22 0 18 -7 20 -90 20 l-90 0 0 -120z M7001 3400 l-2 -120 91 0 c88
0 90 1 90 23 0 22 -3 24 -62 23 l-63 -1 -3 98 c-3 94 -3 97 -26 97 -24 0 -24
-1 -25 -120z m102 -107 c-7 -2 -21 -2 -30 0 -10 3 -4 5 12 5 17 0 24 -2 18 -5z
M7260 3494 c6 -14 7 -30 4 -36 -4 -6 -2 -8 3 -5 6 4 20 -19 32 -53 14 -38 26
-58 33 -54 7 4 8 2 4 -4 -4 -6 -4 -23 0 -37 5 -19 12 -25 35 -25 22 0 32 7 46
33 9 17 18 41 20 52 2 10 10 29 18 41 11 16 11 24 2 34 -7 7 -7 11 -2 8 6 -3
18 3 27 13 10 11 12 19 6 21 -6 2 -4 11 6 21 16 16 16 17 -13 17 -24 0 -34 -7
-48 -32 -9 -18 -18 -37 -19 -43 -1 -5 -11 -30 -22 -55 -24 -50 -16 -58 -62 68
-21 56 -25 62 -51 62 -27 0 -28 -2 -19 -26z M7581 3400 l-2 -120 96 0 c92 0
95 1 95 23 0 21 -4 22 -55 19 -72 -5 -84 0 -78 32 5 24 8 26 59 23 30 -1 54 0
55 3 0 3 2 13 4 23 3 17 -22 23 -87 18 -19 -1 -28 4 -33 18 -10 34 3 41 71 41
57 0 64 2 64 20 0 19 -7 20 -93 20 l-94 0 -2 -120z M4026 3444 c-19 -19 -21
-64 -3 -86 14 -18 65 -29 73 -16 3 5 12 7 19 4 9 -3 11 2 7 16 -3 14 -1 19 6
14 11 -6 2 41 -12 63 -3 5 -1 11 6 13 7 3 -8 5 -34 6 -31 2 -52 -3 -62 -14z
M5925 3430 c-14 -27 -14 -33 0 -60 29 -55 115 -34 115 28 -1 41 -22 62 -63 62
-30 0 -39 -5 -52 -30z" fill="#EEF2FC"/></g></g>
</svg>