<svg xmlns="http://www.w3.org/2000/svg" width="512" height="512" viewBox="0 0 512 512">
<defs>
<linearGradient id="gR" x1="0" y1="0" x2="0.4" y2="1">
<stop offset="0" stop-color="#4FA0FF"/><stop offset="0.55" stop-color="#5E6BFF"/><stop offset="1" stop-color="#7A52FF"/></linearGradient>
<linearGradient id="gN" x1="0" y1="0" x2="0" y2="1">
<stop offset="0" stop-color="#5066A0"/><stop offset="1" stop-color="#8AA4E4"/></linearGradient>
<linearGradient id="bg" x1="0" y1="0" x2="1" y2="1">
<stop offset="0" stop-color="#141C3A"/><stop offset="1" stop-color="#0C1226"/></linearGradient>
</defs>
<g transform="translate(-535.74,-304.98) scale(1.55396)"><g transform="translate(0.000000,1024.000000) scale(0.100000,-0.100000)"><path d="M6000 7866 c0 -3 9 -10 20 -16 11 -6 20 -8 20 -6 0 3 -9 10 -20 16
-11 6 -20 8 -20 6z M6250 7620 c6 -11 13 -20 16 -20 2 0 0 9 -6 20 -6 11 -13
20 -16 20 -2 0 0 -9 6 -20z M4556 7287 c-22 -55 -28 -86 -6 -39 29 64 32 50 3
-20 -23 -59 -45 -98 -29 -53 15 41 -11 -1 -33 -53 -12 -30 -20 -60 -17 -68 3
-8 2 -13 -3 -10 -11 7 -45 -80 -37 -93 6 -10 -62 -191 -71 -191 -3 0 -2 7 1
16 3 8 2 13 -3 10 -12 -8 -54 -127 -47 -133 3 -4 6 1 6 10 0 10 5 17 11 17 5
0 8 -4 5 -9 -6 -9 81 -24 95 -15 5 3 9 11 9 17 0 7 -4 6 -10 -3 -16 -25 -10 2
10 45 17 36 19 37 14 10 -3 -16 19 29 49 100 30 73 49 133 44 136 -6 4 -5 14
3 25 11 18 11 18 6 -1 -6 -20 -6 -20 9 -1 11 14 12 22 4 27 -8 5 -8 12 1 25
11 18 11 18 5 -1 -10 -33 12 -4 30 38 9 22 11 36 6 32 -6 -3 -11 -12 -11 -20
0 -8 -4 -16 -9 -20 -6 -3 -3 15 5 40 9 25 18 45 21 45 3 0 2 -8 -1 -17 -5 -15
-3 -14 9 2 9 11 11 21 6 23 -5 2 -1 12 10 23 10 10 19 25 19 32 -1 6 -7 1 -15
-13 -17 -30 -20 -21 -4 14 7 14 15 23 19 21 5 -3 11 2 14 11 3 8 2 12 -4 9
-17 -10 -11 7 8 22 9 8 12 12 5 9 -6 -4 -14 -2 -18 4 -3 6 4 11 17 11 19 1 18
3 -7 9 -16 4 -47 8 -67 9 -34 1 -39 -3 -52 -32z m88 15 c6 -9 -61 -8 -71 1 -3
4 10 7 30 7 20 0 38 -4 41 -8z m-140 -201 c-9 -23 -18 -40 -20 -38 -2 2 4 22
13 45 9 23 18 40 20 38 2 -2 -4 -22 -13 -45z m-48 -118 c-8 -15 -15 -25 -16
-21 0 12 23 58 27 54 3 -2 -2 -17 -11 -33z m75 -60 c-12 -20 -14 -14 -5 12 4
9 9 14 11 11 3 -2 0 -13 -6 -23z m-30 -74 c-11 -24 -20 -41 -20 -37 -1 12 31
89 35 85 3 -2 -4 -24 -15 -48z m-30 -76 c-12 -20 -14 -14 -5 12 4 9 9 14 11
11 3 -2 0 -13 -6 -23z m-120 -50 c-12 -20 -14 -14 -5 12 4 9 9 14 11 11 3 -2
0 -13 -6 -23z M4083 7214 c-13 -13 -17 -24 -10 -24 14 0 -53 -55 -68 -55 -15
0 -96 -67 -89 -74 3 -3 9 1 14 9 6 8 10 10 10 4 0 -16 -27 -37 -38 -30 -6 3
-16 -2 -23 -12 -13 -16 -13 -16 6 -2 19 14 19 14 6 -2 -7 -10 -17 -16 -21 -13
-9 5 -58 -31 -50 -37 3 -2 37 -32 76 -66 40 -34 76 -62 80 -62 5 0 0 7 -10 15
-11 8 -15 15 -10 15 6 0 23 -13 39 -30 16 -16 25 -30 21 -30 -5 0 -3 -7 4 -15
18 -21 35 -19 19 3 -7 9 -1 6 14 -7 30 -27 36 -40 10 -21 -10 7 -3 -2 15 -19
31 -29 61 -35 46 -8 -4 7 -3 9 1 4 10 -9 65 41 65 60 0 14 -16 18 -23 6 -2 -5
-2 -3 -1 4 4 17 -54 63 -71 56 -11 -3 -13 -1 -9 10 3 10 -3 20 -18 28 -13 7
-24 10 -25 8 -1 -2 -5 0 -10 5 -5 6 -2 6 7 1 8 -4 2 6 -15 24 l-29 31 22 16
c12 8 19 20 16 26 -4 6 -2 8 3 5 6 -4 28 10 50 31 22 20 30 30 19 22 -21 -15
-21 -15 -3 7 11 12 24 19 31 17 7 -3 19 3 27 12 12 16 12 17 -1 9 -9 -5 -8 0
4 13 21 25 36 31 16 7 -8 -9 -9 -15 -2 -15 30 0 21 26 -19 61 -24 21 -46 38
-49 38 -3 -1 -15 -12 -27 -25z m45 4 c8 -10 5 -13 -13 -13 -18 0 -21 3 -13 13
6 6 12 12 13 12 1 0 7 -6 13 -12z m-218 -295 c0 -8 -38 17 -51 33 -9 11 -2 9
19 -6 17 -13 32 -25 32 -27z M4895 7231 c6 -11 4 -13 -9 -8 -13 5 -17 3 -13
-7 4 -11 1 -13 -10 -9 -13 5 -15 2 -10 -11 4 -9 3 -15 -2 -12 -5 3 -14 -1 -21
-9 -11 -13 -9 -20 10 -40 25 -26 46 -34 34 -12 -4 6 2 4 14 -7 12 -10 19 -22
17 -27 -3 -4 19 -27 49 -51 49 -38 70 -67 49 -68 -5 0 -28 -19 -53 -41 -32
-29 -35 -34 -11 -17 89 62 92 60 7 -8 -28 -21 -46 -33 -42 -26 14 24 -10 11
-56 -31 l-48 -42 46 -39 c43 -37 46 -38 62 -21 16 16 16 17 -4 7 -18 -10 -25
-6 -50 21 l-29 32 31 -28 31 -28 30 25 c17 14 33 23 36 20 3 -3 11 -3 17 1 9
5 9 10 1 14 -6 4 -2 12 10 20 15 8 19 9 14 1 -10 -17 22 3 60 36 22 19 25 24
10 20 -13 -5 -7 4 15 23 39 34 65 43 29 10 -16 -14 -12 -13 11 4 19 13 35 29
35 35 0 6 4 14 9 19 5 5 6 2 1 -6 -5 -9 -3 -12 5 -9 8 2 16 10 18 18 3 7 0 10
-5 7 -12 -8 -53 20 -53 35 0 6 10 3 22 -8 12 -10 18 -14 14 -7 -3 7 -21 22
-39 35 -28 19 -30 20 -17 3 14 -20 14 -20 -7 -1 -13 10 -20 22 -18 27 6 9 -46
47 -60 43 -5 -2 -35 20 -65 49 -31 29 -48 46 -38 38 10 -8 20 -12 22 -10 2 2
-10 15 -27 29 -17 14 -27 19 -22 11z m100 -201 c10 -11 16 -20 13 -20 -3 0
-13 9 -23 20 -10 11 -16 20 -13 20 3 0 13 -9 23 -20z m40 -170 c-3 -5 -11 -10
-16 -10 -6 0 -7 5 -4 10 3 6 11 10 16 10 6 0 7 -4 4 -10z m-160 -10 c-3 -5
-20 -19 -38 -30 l-32 -22 35 31 c35 32 46 38 35 21z M4992 7144 c10 -10 20
-15 24 -12 3 4 -5 12 -18 18 -22 12 -22 12 -6 -6z M6432 7090 c0 -14 2 -19 5
-12 2 6 2 18 0 25 -3 6 -5 1 -5 -13z M6433 7005 c0 -22 2 -30 4 -17 2 12 2 30
0 40 -3 9 -5 -1 -4 -23z M4416 6931 c-13 -20 -25 -62 -17 -57 5 3 14 19 19 36
10 29 9 40 -2 21z M4380 6839 c-6 -11 -10 -25 -8 -30 2 -5 8 4 15 21 13 34 9
40 -7 9z M3986 6835 c4 -8 11 -15 16 -15 6 0 5 6 -2 15 -7 8 -14 15 -16 15 -2
0 -1 -7 2 -15z M4850 6481 c0 -5 8 -15 18 -22 15 -13 16 -12 4 3 -13 16 -5 18
120 21 l133 3 -137 2 c-76 1 -138 -2 -138 -7z M5238 6483 c23 -2 61 -2 85 0
23 2 4 4 -43 4 -47 0 -66 -2 -42 -4z M6184 6418 l-19 -23 23 19 c21 18 27 26
19 26 -2 0 -12 -10 -23 -22z M3770 6260 l0 -160 185 0 186 0 -2 160 c-1 157
-1 160 -22 159 -12 0 -16 -3 -9 -6 35 -14 -3 -18 -153 -15 l-164 3 -4 -133 -3
-133 -2 137 -2 137 153 4 152 3 -157 2 -158 2 0 -160z m295 -143 c22 -2 -33
-4 -122 -5 -90 -1 -163 1 -163 6 0 6 190 6 285 -1z m65 3 c0 -5 -4 -10 -10
-10 -5 0 -10 5 -10 10 0 6 5 10 10 10 6 0 10 -4 10 -10z M4935 6370 c10 -11
20 -20 23 -20 3 0 -3 9 -13 20 -10 11 -20 20 -23 20 -3 0 3 -9 13 -20z M5015
6280 c10 -11 20 -20 23 -20 3 0 -3 9 -13 20 -10 11 -20 20 -23 20 -3 0 3 -9
13 -20z M5630 6164 c0 -6 19 -28 43 -49 l42 -40 -40 45 c-22 25 -41 47 -42 49
-2 2 -3 0 -3 -5z M4141 5908 l-1 -178 23 1 c16 1 18 2 5 6 -16 4 -18 19 -16
161 l2 157 3 -152 4 -153 159 0 159 0 4 128 3 127 0 -138 c-1 -75 2 -137 7
-137 4 0 7 68 7 151 0 97 -4 148 -10 144 -5 -3 -10 3 -10 14 0 20 -6 21 -122
23 l-123 2 120 3 c104 3 121 1 132 -14 11 -15 13 -15 13 -1 0 9 -7 19 -16 22
-27 11 -331 7 -314 -4 13 -8 13 -10 -2 -10 -9 0 -19 6 -21 13 -3 6 -6 -68 -6
-165z M5247 6005 c10 -13 22 -25 27 -25 5 0 -1 11 -14 25 -30 32 -36 32 -13 0z
M5775 6000 c10 -11 20 -20 22 -20 2 0 -2 9 -9 20 -7 11 -17 20 -22 20 -5 0 -1
-9 9 -20z M5315 5930 c10 -11 20 -20 23 -20 3 0 -3 9 -13 20 -10 11 -20 20
-23 20 -3 0 3 -9 13 -20z M5855 5910 c10 -11 20 -20 23 -20 3 0 -3 9 -13 20
-10 11 -20 20 -23 20 -3 0 3 -9 13 -20z M5365 5870 c10 -11 20 -20 22 -20 2 0
-2 9 -9 20 -7 11 -17 20 -22 20 -5 0 -1 -9 9 -20z M5945 5810 c10 -11 20 -20
23 -20 3 0 -3 9 -13 20 -10 11 -20 20 -23 20 -3 0 3 -9 13 -20z M5432 5790 c7
-11 17 -20 22 -20 5 0 1 9 -9 20 -10 11 -20 20 -22 20 -2 0 2 -9 9 -20z M6020
5725 c13 -14 26 -25 28 -25 3 0 -5 11 -18 25 -13 14 -26 25 -28 25 -3 0 5 -11
18 -25z M4243 5733 c9 -2 23 -2 30 0 6 3 -1 5 -18 5 -16 0 -22 -2 -12 -5z
M5500 5715 c13 -14 26 -25 28 -25 3 0 -5 11 -18 25 -13 14 -26 25 -28 25 -3 0
5 -11 18 -25z M4494 5610 c0 -52 1 -74 3 -47 2 26 2 68 0 95 -2 26 -3 4 -3
-48z M5565 5640 c10 -11 20 -20 23 -20 3 0 -3 9 -13 20 -10 11 -20 20 -23 20
-3 0 3 -9 13 -20z M3850 5475 l0 -165 155 0 155 0 -1 28 c-2 23 -2 24 -6 5 -4
-23 -6 -23 -151 -21 l-147 2 143 3 142 4 0 144 0 144 -122 4 -123 3 132 0 c72
-1 129 2 126 7 -2 4 -71 7 -154 7 l-149 0 0 -165z m22 58 c-5 -181 -8 -199
-10 -50 -1 81 1 147 6 147 4 0 6 -44 4 -97z M6126 5608 c15 -20 30 -35 33 -32
3 2 -10 19 -28 37 l-34 32 29 -37z M5615 5580 c10 -11 20 -20 23 -20 3 0 -3 9
-13 20 -10 11 -20 20 -23 20 -3 0 3 -9 13 -20z M6180 5547 c0 -2 15 -16 33
-33 l32 -29 -29 33 c-28 30 -36 37 -36 29z M6280 5435 c14 -16 26 -32 28 -34
1 -2 4 -2 7 1 3 2 -10 18 -28 34 l-32 29 25 -30z M6350 5355 c19 -19 36 -35
38 -35 8 0 -53 69 -62 69 -6 1 5 -15 24 -34z M5810 5355 c13 -14 26 -25 28
-25 3 0 -5 11 -18 25 -13 14 -26 25 -28 25 -3 0 5 -11 18 -25z M6420 5275 c13
-14 25 -25 27 -25 9 0 -33 49 -41 50 -5 0 1 -11 14 -25z M5890 5265 c13 -14
26 -25 28 -25 3 0 -5 11 -18 25 -13 14 -26 25 -28 25 -3 0 5 -11 18 -25z" fill="url(#gN)"/></g></g>
<g transform="translate(-535.74,-304.98) scale(1.55396)"><g transform="translate(0.000000,1024.000000) scale(0.100000,-0.100000)"><path d="M3750 8013 c1 -4 74 -93 163 -198 l163 -190 749 -5 c582 -4 759 -9
790 -19 151 -49 297 -172 358 -301 46 -97 61 -177 54 -293 -6 -108 -24 -167
-79 -254 -74 -117 -205 -211 -347 -248 -61 -16 -210 -21 -614 -24 l-128 -1 23
-34 c13 -18 51 -64 84 -102 34 -38 74 -85 90 -104 16 -19 90 -105 164 -190 74
-85 141 -163 150 -174 33 -40 273 -318 405 -470 l140 -161 269 -3 268 -2 -32
37 c-18 21 -54 61 -79 89 -25 28 -71 80 -101 114 -30 35 -66 76 -80 90 -14 15
-38 42 -55 61 -67 76 -180 204 -185 209 -3 3 -55 61 -117 130 -61 69 -125 138
-142 154 -17 17 -31 33 -31 37 0 4 26 10 58 14 316 35 602 270 700 575 72 223
53 508 -47 714 -137 280 -330 442 -626 527 l-80 23 -942 4 c-519 1 -943 -1
-943 -5z M4328 5733 c28 -2 76 -2 105 0 28 2 5 3 -53 3 -58 0 -81 -1 -52 -3z
M4500 5490 l0 -210 200 0 200 0 0 210 0 210 -200 0 -200 0 0 -210z M4154 5490
c0 -74 1 -105 3 -67 2 37 2 97 0 135 -2 37 -3 6 -3 -68z" fill="url(#gR)"/></g></g>
</svg>